<svg width="41" height="41" viewBox="0 0 41 41" fill="none" xmlns="http://www.w3.org/2000/svg">
<g clip-path="url(#clip0_173_1221)">
<g clip-path="url(#clip1_173_1221)">
<path d="M9.43098 3.90117C12.7075 1.70773 16.5595 0.537048 20.4999 0.537048C25.7839 0.537048 30.8516 2.64005 34.5882 6.38373C38.3248 10.1274 40.4242 15.2052 40.4242 20.5C40.4242 24.4485 39.2555 28.3083 37.0661 31.5912C34.8767 34.8741 31.7649 37.4327 28.1243 38.9435C24.4837 40.4544 20.4778 40.8496 16.6131 40.0794C12.7483 39.3092 9.19822 37.4081 6.4117 34.6163C3.62518 31.8245 1.72742 28.2674 0.958567 24.3948C0.189712 20.5222 0.584325 16.5081 2.09246 12.8602C3.6006 9.21235 6.15447 6.09462 9.43098 3.90117Z" fill="black" fill-opacity="0.57" stroke="white"/>
<path d="M28.9574 18.956L17.8169 11.5149C17.5376 11.3282 17.2129 11.2208 16.8774 11.2043C16.542 11.1878 16.2084 11.2628 15.9121 11.4212C15.6158 11.5797 15.368 11.8157 15.195 12.104C15.022 12.3924 14.9303 12.7224 14.9297 13.0589V27.9411C14.9303 28.2775 15.022 28.6076 15.195 28.8959C15.368 29.1843 15.6158 29.4203 15.9121 29.5788C16.2084 29.7372 16.542 29.8122 16.8774 29.7957C17.2129 29.7792 17.5376 29.6718 17.8169 29.4851L28.9574 22.044C29.2102 21.8739 29.4173 21.644 29.5605 21.3748C29.7037 21.1055 29.7785 20.8051 29.7785 20.5C29.7785 20.1949 29.7037 19.8945 29.5605 19.6252C29.4173 19.356 29.2102 19.1261 28.9574 18.956V18.956Z" fill="white"/>
</g>
</g>
<defs>
<clipPath id="clip0_173_1221">
<rect width="40.8485" height="40.9259" fill="white" transform="translate(0.0756836 0.0370483)"/>
</clipPath>
<clipPath id="clip1_173_1221">
<rect width="40.8485" height="40.9259" fill="white" transform="translate(0.0756836 0.0370483)"/>
</clipPath>
</defs>
</svg>
