<svg width="16" height="13" viewBox="0 0 16 13" fill="none" xmlns="http://www.w3.org/2000/svg">
<path d="M9.31677 1.59838L9.31579 1.5994L8.82523 2.10691L8.46457 2.48003L8.10511 2.10576L7.6178 1.59838C7.61776 1.59834 7.61771 1.59829 7.61767 1.59825C6.21008 0.133921 3.93785 0.133917 2.53026 1.59824C1.16763 3.01922 1.10699 5.30945 2.39498 6.80711C4.17198 8.85822 6.1251 10.7357 8.22989 12.4161C8.37186 12.528 8.5628 12.528 8.70475 12.416C10.8102 10.7365 12.7634 8.859 14.5396 6.80714C15.8276 5.30941 15.7669 3.01901 14.4041 1.59803L9.31677 1.59838ZM9.31677 1.59838C10.7243 0.134001 12.9964 0.133872 14.4041 1.598L9.31677 1.59838Z" stroke="#222222"/>
</svg>
