<svg width="18" height="17" viewBox="0 0 18 17" fill="none" xmlns="http://www.w3.org/2000/svg">
<mask id="path-1-inside-1_83_968" fill="white">
<path fill-rule="evenodd" clip-rule="evenodd" d="M16.3479 12.5307C17.0803 11.3471 17.5 9.96983 17.5 8.5C17.5 4.08172 13.7076 0.5 9.02943 0.5C4.35125 0.5 0.558838 4.08172 0.558838 8.5C0.558838 12.9183 4.35125 16.5 9.02943 16.5C10.6665 16.5 12.1951 16.0614 13.4907 15.3018L16.653 15.7L16.3479 12.5307Z"/>
</mask>
<path d="M16.3479 12.5307L14.6472 11.4783L14.2925 12.0514L14.3571 12.7223L16.3479 12.5307ZM13.4907 15.3018L13.7406 13.3175L13.0659 13.2325L12.4792 13.5765L13.4907 15.3018ZM16.653 15.7L16.4031 17.6843L18.8833 17.9967L18.6438 15.5084L16.653 15.7ZM15.5 8.5C15.5 9.58213 15.1925 10.5971 14.6472 11.4783L18.0486 13.5831C18.9681 12.0971 19.5 10.3575 19.5 8.5H15.5ZM9.02943 2.5C12.7123 2.5 15.5 5.29246 15.5 8.5H19.5C19.5 2.87099 14.7029 -1.5 9.02943 -1.5V2.5ZM2.55884 8.5C2.55884 5.29246 5.34658 2.5 9.02943 2.5V-1.5C3.35592 -1.5 -1.44116 2.87099 -1.44116 8.5H2.55884ZM9.02943 14.5C5.34658 14.5 2.55884 11.7075 2.55884 8.5H-1.44116C-1.44116 14.129 3.35592 18.5 9.02943 18.5V14.5ZM12.4792 13.5765C11.4865 14.1585 10.3065 14.5 9.02943 14.5V18.5C11.0266 18.5 12.9038 17.9643 14.5023 17.0271L12.4792 13.5765ZM13.2408 17.2861L16.4031 17.6843L16.9029 13.7157L13.7406 13.3175L13.2408 17.2861ZM18.6438 15.5084L18.3387 12.3391L14.3571 12.7223L14.6622 15.8916L18.6438 15.5084Z" fill="#222222" mask="url(#path-1-inside-1_83_968)"/>
</svg>
