<svg width="19" height="19" viewBox="0 0 19 19" fill="none" xmlns="http://www.w3.org/2000/svg">
<path d="M10.7921 3.65346L10.794 3.65147C12.3285 2.11638 14.8146 2.11618 16.3493 3.65085C17.8247 5.13017 17.8894 7.50603 16.4966 9.06358C14.3827 11.4115 12.058 13.5603 9.55178 15.4828C9.52076 15.5059 9.47842 15.5057 9.44757 15.4823L8.84198 16.278L9.45087 15.4848C6.94439 13.5607 4.61883 11.4113 2.50321 9.06334C1.11072 7.50588 1.17532 5.13039 2.65041 3.65112C4.18503 2.11627 6.6711 2.11629 8.20569 3.6512C8.20578 3.65129 8.20586 3.65138 8.20595 3.65147L8.79062 4.2368L9.49587 4.94286L10.2034 4.23905L10.7921 3.65346Z" stroke="#222222" stroke-width="2"/>
</svg>
