<svg width="19" height="15" viewBox="0 0 19 15" fill="none" xmlns="http://www.w3.org/2000/svg">
<path fill-rule="evenodd" clip-rule="evenodd" d="M8.32409 1.33189C8.32409 0.21718 9.5895 -0.40254 10.4437 0.293806L18.0104 6.46192C18.6632 6.99412 18.6632 8.00588 18.0104 8.53808L10.4437 14.7062C9.5895 15.4025 8.32409 14.7828 8.32409 13.6681V11.0033C5.91416 11.0127 3.66534 12.1677 2.20759 14.0421C1.66843 14.7354 0.471604 14.4011 0.500515 13.4095C0.635976 8.76198 3.96199 4.93201 8.32409 4.11533V1.33189ZM10.0636 2.25384V4.88449V5.68713L9.27978 5.76638C6.17283 6.08063 3.59988 8.24783 2.63965 11.1678C4.49605 9.76032 6.8458 9.03434 9.27848 9.27669L10.0636 9.35495V10.1588V12.7462L16.4992 7.5L10.0636 2.25384Z" fill="#222222"/>
</svg>
